<svg id="Capa_1" data-name="Capa 1" xmlns="http://www.w3.org/2000/svg" xmlns:xlink="http://www.w3.org/1999/xlink" viewBox="0 0 126 77">
  <defs>
    <linearGradient id="Degradado_sin_nombre" data-name="Degradado sin nombre" x1="60.5" y1="8.28" x2="60.5" y2="77.28" gradientTransform="matrix(1, 0, 0, -1, 0, 77.28)" gradientUnits="userSpaceOnUse">
      <stop offset="0" stop-color="gray"/>
      <stop offset="0" stop-color="gray" stop-opacity="0.25"/>
      <stop offset="0" stop-opacity="0.1"/>
    </linearGradient>
    <linearGradient id="Degradado_sin_nombre_2" data-name="Degradado sin nombre 2" x1="9" y1="40.78" x2="50" y2="40.78" xlink:href="#Degradado_sin_nombre"/>
  </defs>
  <title>Icono-1</title>
  <rect id="Rectangle" x="21" y="9" width="105" height="68" fill="#55abdd" opacity="0.2" style="isolation: isolate"/>
  <rect id="Rectangle-2" width="121" height="69" fill="url(#Degradado_sin_nombre)"/>
  <rect id="Rectangle-3" x="1" y="10" width="118" height="58" fill="#fff"/>
  <rect id="Rectangle-4" x="9" y="15" width="41" height="43" fill="url(#Degradado_sin_nombre_2)"/>
  <rect id="Rectangle-5" x="11" y="16" width="39" height="41" fill="#55abdd"/>
  <path id="Path" d="M39.48,42.68c.37-2.34-.61-4.67-1.57-6.84l-1-2.27v.06a9,9,0,0,1-6.71,8.8V44a9.1,9.1,0,0,1,6.71,8.8V57H19V52.78A9.1,9.1,0,0,1,25.71,44V42.43a9.13,9.13,0,0,1-1.26-17.16A3.52,3.52,0,0,1,27.36,22a12,12,0,0,1,.74-1.53,4.66,4.66,0,0,1,4-2.48,5.09,5.09,0,0,1,2.49.88,12,12,0,0,1,4.5,5.74,28.58,28.58,0,0,1,1.64,7.24C41.16,35.54,41.31,39.49,39.48,42.68Z" transform="translate(0 0)" fill="#fff" fill-rule="evenodd"/>
  <rect id="Rectangle-6" x="1" y="1" width="118" height="9" fill="#5a869e"/>
  <rect id="Rectangle-7" x="64" y="28" width="45" height="3" fill="#e0e0e0"/>
  <rect id="Rectangle-8" x="64" y="41" width="45" height="3" fill="#f5f5f5"/>
  <rect id="Rectangle-9" x="65" y="34" width="26" height="3" fill="#6c63ff" opacity="0.2" style="isolation: isolate"/>
  <rect id="Rectangle-10" x="64" y="46" width="18" height="3" fill="#69f0ae" opacity="0.2" style="isolation: isolate"/>
  <rect id="Rectangle-11" x="86" y="46" width="18" height="3" fill="#69f0ae"/>
</svg>
