<svg xmlns="http://www.w3.org/2000/svg" xmlns:xlink="http://www.w3.org/1999/xlink" version="1.1" id="Layer_2_1_" x="0px" y="0px" viewBox="0 0 680.4 680.4" style="enable-background:new 0 0 680.4 680.4;" xml:space="preserve"> <style type="text/css"> .st0{fill:#FFFFFF;} .st1{fill:none;} </style> <rect x="411.1" y="425.2" class="st0" width="85" height="28.4"/> <rect x="411.1" y="226.8" class="st0" width="85" height="28.4"/> <rect x="411.1" y="292.9" class="st0" width="85" height="28.4"/> <rect x="411.1" y="359.1" class="st0" width="85" height="28.4"/> <path class="st0" d="M552.8,510.2H127.7V170.1h425.2v340.1H552.8z M156,481.9h368.5V198.4H156V481.9z"/> <path class="st0" d="M379.4,292.9l-30.1-66.1H319h-63.8h-30.4l-30.1,66.1h-17.5v28.4h14.2v97v6.9v10.6c0,9.7,7.8,17.5,17.5,17.5 s17.5-7.8,17.5-17.5v-10.6h121.3v10.6c0,9.7,7.8,17.5,17.5,17.5s17.5-7.8,17.5-17.5v-10.6v-6.9v-97h14.2v-28.4H379.4z M243.1,255.1 h12.1H319h12.1l28.6,63H214.4L243.1,255.1z M228.7,389.4L228.7,389.4c-9.7,0-17.5-7.8-17.5-17.5s7.8-17.5,17.5-17.5 s17.5,7.8,17.5,17.5C246.2,381.5,238.4,389.4,228.7,389.4z M328,371.9c0-9.7,7.8-17.5,17.5-17.5s17.5,7.8,17.5,17.5l0,0 c0,9.7-7.8,17.5-17.5,17.5S328,381.5,328,371.9z"/> <rect x="0.1" y="0.1" class="st1" width="680.3" height="680.3"/> </svg>