<svg width="80" height="80" viewBox="0 0 80 80" fill="none" xmlns="http://www.w3.org/2000/svg">
<path d="M30 50L50 30M30 30L50 50M79 40C79 45.1216 77.9912 50.193 76.0313 54.9247C74.0714 59.6564 71.1986 63.9557 67.5772 67.5772C63.9557 71.1986 59.6564 74.0714 54.9247 76.0313C50.193 77.9912 45.1216 79 40 79C34.8784 79 29.807 77.9912 25.0753 76.0313C20.3436 74.0714 16.0443 71.1986 12.4228 67.5772C8.80135 63.9557 5.92863 59.6564 3.9687 54.9247C2.00876 50.193 1 45.1216 1 40C1 29.6566 5.10892 19.7368 12.4228 12.4228C19.7368 5.10892 29.6566 1 40 1C50.3434 1 60.2632 5.10892 67.5772 12.4228C74.8911 19.7368 79 29.6566 79 40Z" stroke="#1B80F8" stroke-width="2" stroke-linecap="round" stroke-linejoin="round"/>
</svg>
