<?xml version="1.0" encoding="UTF-8"?>
<!DOCTYPE svg PUBLIC "-//W3C//DTD SVG 1.1//EN" "http://www.w3.org/Graphics/SVG/1.1/DTD/svg11.dtd">
<!-- Creator: CorelDRAW 2021 (64-Bit Versión de evaluación) -->
<svg xmlns="http://www.w3.org/2000/svg" xml:space="preserve" width="94px" height="94px" version="1.1" style="shape-rendering:geometricPrecision; text-rendering:geometricPrecision; image-rendering:optimizeQuality; fill-rule:evenodd; clip-rule:evenodd"
viewBox="0 0 0.98 0.98"
 xmlns:xlink="http://www.w3.org/1999/xlink"
 xmlns:xodm="http://www.corel.com/coreldraw/odm/2003">
 <defs>
  <style type="text/css">
   <![CDATA[
    .fil0 {fill:none}
    .fil1 {fill:#55ABDE}
   ]]>
  </style>
 </defs>
 <g id="Capa_x0020_1">
  <metadata id="CorelCorpID_0Corel-Layer"/>
  <g id="_1651607139296">
   <rect class="fil0" width="0.98" height="0.98"/>
   <g>
    <path class="fil1" d="M0.41 0.61c-0.03,0 -0.04,-0.03 -0.06,-0.06 0,-0.01 -0.01,-0.02 -0.02,-0.03 -0.02,-0.01 -0.04,0 -0.05,0.01 -0.02,0.02 0.01,0.06 0.02,0.08 0.01,0.02 0.02,0.03 0.03,0.05 0,0 0,0 0,0.01 0.07,0.06 0.07,0.01 0.12,0.11 0,0.02 0.02,0.01 0.04,0.01 0.04,0 0.08,0 0.12,0 0.04,0 0.03,0.01 0.03,-0.03 0,-0.04 0.02,-0.13 0.03,-0.17 0.02,-0.08 0.03,-0.11 0.01,-0.19 -0.01,-0.03 -0.02,-0.06 -0.03,-0.09 -0.01,-0.03 -0.02,-0.05 -0.03,-0.08 -0.01,-0.02 -0.01,-0.03 -0.03,-0.04 -0.02,-0.01 -0.06,0.01 -0.05,0.05 0,0.02 0.04,0.11 0.05,0.13 0,0.01 0.03,0.07 0.03,0.08 -0.01,0 -0.01,-0.01 -0.02,-0.01l-0.08 -0.23c-0.02,-0.03 -0.06,-0.03 -0.08,-0.01 0,0.02 0,0.03 0.01,0.05 0,0.01 0.01,0.03 0.01,0.04 0.01,0.03 0.02,0.06 0.03,0.09 0.01,0 0.01,0.01 0.01,0.02 0,0.01 -0.01,0 -0.01,0 -0.04,-0.02 -0.1,0 -0.14,0.02 -0.07,0.04 -0.04,0.09 0,0.09 0.01,0 0.02,0 0.02,-0.01 0.01,0 0.01,-0.01 0.02,-0.01 0.01,-0.01 0.02,-0.02 0.04,-0.02 0.04,-0.01 0.07,0.06 0.05,0.1 0,0.02 -0.01,0.03 -0.02,0.03 -0.02,0.01 -0.04,0.01 -0.05,0.01zm0.22 -0.38c0,0.02 0.04,0.11 0.05,0.14 0,0.01 0.01,0.04 0.01,0.05 0.01,-0.01 0.01,-0.12 0.01,-0.14 0,-0.03 0,-0.04 -0.02,-0.06 -0.02,-0.01 -0.05,0 -0.05,0.01z"/>
   </g>
  </g>
 </g>
</svg>
